# xmcd
#
# Track frame offsets:
#	150
#	11005
#	21592
#	28846
#	42191
#	54806
#	63795
#	76017
#	90834
#	104481
#	119196
#	133356
#	145200
#	157220
#
# Disc length: 2311 seconds
# Revision: 0
# Processed by: cddbd v1.5.2PL0 Copyright (c) Steve Scherf et al.
# Submitted via: dBpowerAMP V12.0
#
DISCID=bd09050e
DTITLE=Newsound Country - Lucky One
DYEAR=2005
DGENRE=Country
TTITLE0=Thats Alright
TTITLE1=Katy Daly
TTITLE2=Banjo Signal
TTITLE3=Never Again
TTITLE4=All Gods Creatures
TTITLE5=The Swedish Fiddle
TTITLE6=Folsom Prison
TTITLE7=Keep on the Sunny Side
TTITLE8=Teenessee
TTITLE9=Lucky One
TTITLE10=Man of Constant Sorrow
TTITLE11=Will The Circle Be Unbroken
TTITLE12=Blue Moon of Kentucky
TTITLE13=Steel Rails
EXTD=
EXTT0=
EXTT1=
EXTT2=
EXTT3=
EXTT4=
EXTT5=
EXTT6=
EXTT7=
EXTT8=
EXTT9=
EXTT10=
EXTT11=
EXTT12=
EXTT13=
PLAYORDER=
